<mxfile host="app.diagrams.net" modified="2023-07-05T09:22:58.076Z" agent="Mozilla/5.0 (Windows NT 10.0; Win64; x64) AppleWebKit/537.36 (KHTML, like Gecko) Chrome/114.0.0.0 Safari/537.36" version="21.5.2" etag="wnu45kpRXJv2W0uIUjNW" type="github">
  <diagram name="Page-1" id="72XmAIy1ASgd71jm_gl2">
    <mxGraphModel>
      <root>
        <mxCell id="0" />
        <mxCell id="1" parent="0" />
      </root>
    </mxGraphModel>
  </diagram>
</mxfile>
